<svg width="115" height="13" viewBox="0 0 115 13" fill="none" xmlns="http://www.w3.org/2000/svg">
<path fill-rule="evenodd" clip-rule="evenodd" d="M75.7636 6.64236V3.70076H77.5386L77.4452 0.0949354H68.29C68.1649 0.959711 68.0962 1.29934 68.236 2.23737C68.3087 2.72519 68.29 3.17575 68.29 3.70076H70.1584V9.48908H68.5703V12.9051H75.9504C76.3483 12.9051 80.3885 8.57759 81.2478 7.84795C81.9653 7.23878 82.6531 6.21864 83.7043 5.50368V9.29929H81.6491V13H91.5516V9.39417H89.4963V3.51097H91.3647V2.68331e-05H82.8635C82.5472 2.68331e-05 82.4636 0.0997921 82.2768 0.258134C81.4647 0.946751 81.772 0.77357 81.0186 1.5421L79.2435 3.25005C78.4699 4.03583 76.5105 6.13433 75.7636 6.64236ZM92.8595 3.22633H94.6344C94.8627 3.22633 95.0081 3.0159 95.0081 3.41609V9.48908H92.8594V12.8102H102.762V9.48908C101.937 9.48908 101.498 9.58396 100.707 9.58396V7.4015H106.592V9.58396H104.724V12.8103H115V9.58396C114.526 9.58396 114.491 9.48908 113.972 9.48908H112.384C112.384 7.42932 112.478 5.47614 112.478 3.32118C113.262 3.13566 114.184 3.2263 115 3.2263V0H105.097V3.13139H106.592C106.592 4.00078 106.711 4.36496 106.312 4.36496H100.707V3.13139H102.762V0H92.8595V3.2263V3.22633ZM9.24857 9.29929H8.40779V3.79564C9.17473 3.63065 11.4498 3.95119 12.2062 4.20753C16.0828 5.52122 14.6045 9.29929 9.24857 9.29929ZM0 3.60588L1.68156 3.51097V9.39417H0V12.7153H10.8367C11.5616 12.7153 12.0254 12.595 12.6972 12.5175C13.2012 12.4594 14.0727 12.3728 14.5038 12.265C15.381 12.0455 16.5962 11.4496 17.4073 11.039C19.0459 10.2094 21.1129 8.76325 21.1129 6.35766C21.1129 5.69143 21.0385 5.238 20.8039 4.77374C20.5588 4.28857 20.4235 4.00481 20.1249 3.5656C18.7057 1.47783 14.8965 0 12.4249 0H0V3.60585V3.60588ZM32.697 3.79564C32.7788 4.10688 32.7166 3.85757 32.806 4.06446C33.0718 4.67958 33.6099 5.66771 33.7246 6.1679H31.3891C31.4477 5.9125 31.8226 5.264 31.9803 4.96551C32.1185 4.70424 32.1995 4.61381 32.3232 4.36488C32.4647 4.08013 32.451 3.9787 32.697 3.79564H32.697ZM25.5971 2.94163H28.9602C28.6031 3.48336 28.2098 4.02515 27.8395 4.5551C27.5165 5.0173 24.5667 9.23919 24.476 9.58394H22.3274V12.8102H31.4825V9.48908H29.147C29.2135 9.23631 29.4095 8.91974 29.7075 8.91974H34.8456C35.1215 8.91974 35.2983 9.37708 35.4061 9.58396H33.5377V12.8103H45.7757V9.58396C42.4804 9.58396 43.7837 10.1134 41.6915 7.27992C41.5378 7.07175 41.4517 6.93176 41.3111 6.71741C41.1445 6.46352 41.0532 6.36542 40.8804 6.11109C40.3929 5.39377 36.8169 0.391414 36.714 0H25.597V2.9416L25.5971 2.94163ZM59.4151 5.219H56.3323C55.8448 5.219 56.052 4.21435 56.052 2.84675H59.6019C61.3952 2.84675 61.5385 5.219 59.4151 5.219ZM47.5508 3.03651H49.9797V9.48906C49.1514 9.68507 48.1363 9.58394 47.2705 9.58394V12.7153H59.0414V9.58394H56.1454V8.54016C58.5347 8.54016 61.0326 8.26496 63.041 7.76326C64.5431 7.388 67.1689 6.41544 67.1689 4.45987C67.1689 2.84366 66.5841 1.76999 65.1158 1.04169C64.17 0.572537 62.6782 0 61.2835 0H47.5507V3.03651H47.5508Z" fill="url(#paint0_linear_1_113)" fill-opacity="0.55"/>
<defs>
<linearGradient id="paint0_linear_1_113" x1="-2.85881e-07" y1="9.99999" x2="116.5" y2="-6.56903e-06" gradientUnits="userSpaceOnUse">
<stop stop-color="#5CEEA8"/>
<stop offset="1" stop-color="#30E6FF"/>
</linearGradient>
</defs>
</svg>
